<mxfile host="app.diagrams.net" modified="2024-07-02T02:41:09.038Z" agent="Mozilla/5.0 (Windows NT 10.0; Win64; x64) AppleWebKit/537.36 (KHTML, like Gecko) Chrome/126.0.0.0 Safari/537.36" etag="vrAdjDvfTCRvjP94Rfmh" version="24.6.4" type="device" pages="2">
  <diagram name="画面遷移図" id="6nzInOUK7SrKYnWHOjUP">
    <mxGraphModel dx="1499" dy="655" grid="1" gridSize="10" guides="1" tooltips="1" connect="1" arrows="1" fold="1" page="1" pageScale="1" pageWidth="827" pageHeight="1169" math="0" shadow="0">
      <root>
        <mxCell id="0" />
        <mxCell id="1" parent="0" />
        <mxCell id="TRF8s5XP4Mn8EqwiA2At-4" value="" style="edgeStyle=orthogonalEdgeStyle;rounded=0;orthogonalLoop=1;jettySize=auto;html=1;" parent="1" source="TRF8s5XP4Mn8EqwiA2At-1" target="TRF8s5XP4Mn8EqwiA2At-3" edge="1">
          <mxGeometry relative="1" as="geometry" />
        </mxCell>
        <mxCell id="TRF8s5XP4Mn8EqwiA2At-6" value="" style="edgeStyle=orthogonalEdgeStyle;rounded=0;orthogonalLoop=1;jettySize=auto;html=1;" parent="1" source="TRF8s5XP4Mn8EqwiA2At-1" target="TRF8s5XP4Mn8EqwiA2At-5" edge="1">
          <mxGeometry relative="1" as="geometry" />
        </mxCell>
        <mxCell id="TRF8s5XP4Mn8EqwiA2At-1" value="&lt;font style=&quot;vertical-align: inherit;&quot;&gt;&lt;font style=&quot;vertical-align: inherit;&quot;&gt;トップ画面&lt;/font&gt;&lt;/font&gt;" style="rounded=0;whiteSpace=wrap;html=1;" parent="1" vertex="1">
          <mxGeometry x="120" y="90" width="140" height="110" as="geometry" />
        </mxCell>
        <mxCell id="TRF8s5XP4Mn8EqwiA2At-17" value="" style="edgeStyle=orthogonalEdgeStyle;rounded=0;orthogonalLoop=1;jettySize=auto;html=1;" parent="1" source="TRF8s5XP4Mn8EqwiA2At-3" target="TRF8s5XP4Mn8EqwiA2At-16" edge="1">
          <mxGeometry relative="1" as="geometry" />
        </mxCell>
        <mxCell id="TRF8s5XP4Mn8EqwiA2At-3" value="&lt;div&gt;&lt;font style=&quot;vertical-align: inherit;&quot;&gt;&lt;font style=&quot;vertical-align: inherit;&quot;&gt;&lt;font style=&quot;vertical-align: inherit;&quot;&gt;&lt;font style=&quot;vertical-align: inherit;&quot;&gt;&lt;font style=&quot;vertical-align: inherit;&quot;&gt;&lt;font style=&quot;vertical-align: inherit;&quot;&gt;&lt;font style=&quot;vertical-align: inherit;&quot;&gt;&lt;font style=&quot;vertical-align: inherit;&quot;&gt;管理者&lt;/font&gt;&lt;/font&gt;&lt;/font&gt;&lt;/font&gt;&lt;/font&gt;&lt;/font&gt;&lt;/font&gt;&lt;/font&gt;&lt;/div&gt;&lt;font style=&quot;vertical-align: inherit;&quot;&gt;&lt;font style=&quot;vertical-align: inherit;&quot;&gt;&lt;font style=&quot;vertical-align: inherit;&quot;&gt;&lt;font style=&quot;vertical-align: inherit;&quot;&gt;&lt;font style=&quot;vertical-align: inherit;&quot;&gt;&lt;font style=&quot;vertical-align: inherit;&quot;&gt;&lt;font style=&quot;vertical-align: inherit;&quot;&gt;&lt;font style=&quot;vertical-align: inherit;&quot;&gt;ログイン画面&lt;/font&gt;&lt;/font&gt;&lt;/font&gt;&lt;/font&gt;&lt;/font&gt;&lt;/font&gt;&lt;/font&gt;&lt;/font&gt;" style="rounded=0;whiteSpace=wrap;html=1;" parent="1" vertex="1">
          <mxGeometry x="120" y="380" width="140" height="110" as="geometry" />
        </mxCell>
        <mxCell id="TRF8s5XP4Mn8EqwiA2At-19" value="" style="edgeStyle=orthogonalEdgeStyle;rounded=0;orthogonalLoop=1;jettySize=auto;html=1;" parent="1" source="TRF8s5XP4Mn8EqwiA2At-5" target="TRF8s5XP4Mn8EqwiA2At-18" edge="1">
          <mxGeometry relative="1" as="geometry" />
        </mxCell>
        <mxCell id="TRF8s5XP4Mn8EqwiA2At-5" value="&lt;div&gt;ユーザー&lt;/div&gt;&lt;font style=&quot;vertical-align: inherit;&quot;&gt;&lt;font style=&quot;vertical-align: inherit;&quot;&gt;&lt;font style=&quot;vertical-align: inherit;&quot;&gt;&lt;font style=&quot;vertical-align: inherit;&quot;&gt;&lt;font style=&quot;vertical-align: inherit;&quot;&gt;&lt;font style=&quot;vertical-align: inherit;&quot;&gt;ログイン画面&lt;/font&gt;&lt;/font&gt;&lt;/font&gt;&lt;/font&gt;&lt;/font&gt;&lt;/font&gt;" style="rounded=0;whiteSpace=wrap;html=1;" parent="1" vertex="1">
          <mxGeometry x="413.5" y="90" width="140" height="110" as="geometry" />
        </mxCell>
        <mxCell id="TRF8s5XP4Mn8EqwiA2At-7" value="&lt;font style=&quot;vertical-align: inherit;&quot;&gt;&lt;font style=&quot;vertical-align: inherit;&quot;&gt;&lt;font style=&quot;vertical-align: inherit;&quot;&gt;&lt;font style=&quot;vertical-align: inherit;&quot;&gt;&lt;font style=&quot;vertical-align: inherit;&quot;&gt;&lt;font style=&quot;vertical-align: inherit;&quot;&gt;管理者&lt;/font&gt;&lt;/font&gt;&lt;/font&gt;&lt;/font&gt;&lt;/font&gt;&lt;/font&gt;&lt;div&gt;&lt;font style=&quot;vertical-align: inherit;&quot;&gt;&lt;font style=&quot;vertical-align: inherit;&quot;&gt;&lt;font style=&quot;vertical-align: inherit;&quot;&gt;&lt;font style=&quot;vertical-align: inherit;&quot;&gt;ログインボタン&lt;/font&gt;&lt;/font&gt;&lt;/font&gt;&lt;/font&gt;&lt;/div&gt;" style="text;html=1;align=center;verticalAlign=middle;whiteSpace=wrap;rounded=0;" parent="1" vertex="1">
          <mxGeometry x="64" y="250" width="90" height="30" as="geometry" />
        </mxCell>
        <mxCell id="TRF8s5XP4Mn8EqwiA2At-8" value="&lt;font style=&quot;vertical-align: inherit;&quot;&gt;&lt;font style=&quot;vertical-align: inherit;&quot;&gt;ユーザー&lt;/font&gt;&lt;/font&gt;&lt;br&gt;&lt;div&gt;&lt;font style=&quot;vertical-align: inherit;&quot;&gt;&lt;font style=&quot;vertical-align: inherit;&quot;&gt;&lt;font style=&quot;vertical-align: inherit;&quot;&gt;&lt;font style=&quot;vertical-align: inherit;&quot;&gt;&lt;font style=&quot;vertical-align: inherit;&quot;&gt;&lt;font style=&quot;vertical-align: inherit;&quot;&gt;ログインボタン&lt;/font&gt;&lt;/font&gt;&lt;/font&gt;&lt;/font&gt;&lt;/font&gt;&lt;/font&gt;&lt;/div&gt;" style="text;html=1;align=center;verticalAlign=middle;whiteSpace=wrap;rounded=0;" parent="1" vertex="1">
          <mxGeometry x="293" y="100" width="90" height="30" as="geometry" />
        </mxCell>
        <mxCell id="TRF8s5XP4Mn8EqwiA2At-10" value="" style="endArrow=classic;html=1;rounded=0;entryX=0.404;entryY=0;entryDx=0;entryDy=0;entryPerimeter=0;" parent="1" target="TRF8s5XP4Mn8EqwiA2At-5" edge="1">
          <mxGeometry width="50" height="50" relative="1" as="geometry">
            <mxPoint x="500" y="90" as="sourcePoint" />
            <mxPoint x="450" y="-50" as="targetPoint" />
            <Array as="points">
              <mxPoint x="500" y="20" />
              <mxPoint x="470" y="20" />
            </Array>
          </mxGeometry>
        </mxCell>
        <mxCell id="TRF8s5XP4Mn8EqwiA2At-11" value="&lt;div&gt;&lt;font style=&quot;vertical-align: inherit;&quot;&gt;&lt;font style=&quot;vertical-align: inherit;&quot;&gt;&lt;font style=&quot;vertical-align: inherit;&quot;&gt;&lt;font style=&quot;vertical-align: inherit;&quot;&gt;&lt;font style=&quot;vertical-align: inherit;&quot;&gt;&lt;font style=&quot;vertical-align: inherit;&quot;&gt;ログイン失敗&lt;/font&gt;&lt;/font&gt;&lt;/font&gt;&lt;/font&gt;&lt;/font&gt;&lt;/font&gt;&lt;/div&gt;" style="text;html=1;align=center;verticalAlign=middle;whiteSpace=wrap;rounded=0;" parent="1" vertex="1">
          <mxGeometry x="500" y="40" width="90" height="30" as="geometry" />
        </mxCell>
        <mxCell id="TRF8s5XP4Mn8EqwiA2At-13" value="&lt;div&gt;&lt;font style=&quot;vertical-align: inherit;&quot;&gt;&lt;font style=&quot;vertical-align: inherit;&quot;&gt;&lt;font style=&quot;vertical-align: inherit;&quot;&gt;&lt;font style=&quot;vertical-align: inherit;&quot;&gt;&lt;font style=&quot;vertical-align: inherit;&quot;&gt;&lt;font style=&quot;vertical-align: inherit;&quot;&gt;ログイン失敗&lt;/font&gt;&lt;/font&gt;&lt;/font&gt;&lt;/font&gt;&lt;/font&gt;&lt;/font&gt;&lt;/div&gt;" style="text;html=1;align=center;verticalAlign=middle;whiteSpace=wrap;rounded=0;" parent="1" vertex="1">
          <mxGeometry x="20" y="370" width="90" height="30" as="geometry" />
        </mxCell>
        <mxCell id="TRF8s5XP4Mn8EqwiA2At-15" value="" style="endArrow=classic;html=1;rounded=0;entryX=-0.012;entryY=0.631;entryDx=0;entryDy=0;entryPerimeter=0;" parent="1" target="TRF8s5XP4Mn8EqwiA2At-3" edge="1">
          <mxGeometry width="50" height="50" relative="1" as="geometry">
            <mxPoint x="118" y="410" as="sourcePoint" />
            <mxPoint x="119.99999999999997" y="403.54999999999995" as="targetPoint" />
            <Array as="points">
              <mxPoint x="23" y="410" />
              <mxPoint x="23" y="450" />
            </Array>
          </mxGeometry>
        </mxCell>
        <mxCell id="TRF8s5XP4Mn8EqwiA2At-16" value="HOME画面" style="rounded=0;whiteSpace=wrap;html=1;" parent="1" vertex="1">
          <mxGeometry x="414" y="380" width="140" height="110" as="geometry" />
        </mxCell>
        <mxCell id="TRF8s5XP4Mn8EqwiA2At-31" value="" style="edgeStyle=orthogonalEdgeStyle;rounded=0;orthogonalLoop=1;jettySize=auto;html=1;" parent="1" source="TRF8s5XP4Mn8EqwiA2At-18" target="TRF8s5XP4Mn8EqwiA2At-30" edge="1">
          <mxGeometry relative="1" as="geometry" />
        </mxCell>
        <mxCell id="TRF8s5XP4Mn8EqwiA2At-18" value="HOME画面" style="rounded=0;whiteSpace=wrap;html=1;" parent="1" vertex="1">
          <mxGeometry x="800" y="90" width="140" height="110" as="geometry" />
        </mxCell>
        <mxCell id="TRF8s5XP4Mn8EqwiA2At-20" value="エクスポート画面" style="rounded=0;whiteSpace=wrap;html=1;" parent="1" vertex="1">
          <mxGeometry x="20" y="730" width="140" height="110" as="geometry" />
        </mxCell>
        <mxCell id="TRF8s5XP4Mn8EqwiA2At-22" value="&lt;div&gt;&lt;font style=&quot;vertical-align: inherit;&quot;&gt;&lt;font style=&quot;vertical-align: inherit;&quot;&gt;&lt;font style=&quot;vertical-align: inherit;&quot;&gt;&lt;font style=&quot;vertical-align: inherit;&quot;&gt;&lt;font style=&quot;vertical-align: inherit;&quot;&gt;&lt;font style=&quot;vertical-align: inherit;&quot;&gt;エクスポート&lt;/font&gt;&lt;/font&gt;&lt;/font&gt;&lt;/font&gt;&lt;/font&gt;&lt;/font&gt;&lt;/div&gt;&lt;div&gt;&lt;font style=&quot;vertical-align: inherit;&quot;&gt;&lt;font style=&quot;vertical-align: inherit;&quot;&gt;&lt;font style=&quot;vertical-align: inherit;&quot;&gt;&lt;font style=&quot;vertical-align: inherit;&quot;&gt;&lt;font style=&quot;vertical-align: inherit;&quot;&gt;&lt;font style=&quot;vertical-align: inherit;&quot;&gt;ボタン&lt;/font&gt;&lt;/font&gt;&lt;/font&gt;&lt;/font&gt;&lt;/font&gt;&lt;/font&gt;&lt;/div&gt;" style="text;html=1;align=center;verticalAlign=middle;whiteSpace=wrap;rounded=0;" parent="1" vertex="1">
          <mxGeometry x="90" y="650" width="90" height="30" as="geometry" />
        </mxCell>
        <mxCell id="TRF8s5XP4Mn8EqwiA2At-23" value="&lt;font style=&quot;vertical-align: inherit;&quot;&gt;&lt;font style=&quot;vertical-align: inherit;&quot;&gt;累計勤務実績画面&lt;/font&gt;&lt;/font&gt;" style="rounded=0;whiteSpace=wrap;html=1;" parent="1" vertex="1">
          <mxGeometry x="553.5" y="730" width="140" height="110" as="geometry" />
        </mxCell>
        <mxCell id="TRF8s5XP4Mn8EqwiA2At-25" value="&lt;font style=&quot;vertical-align: inherit;&quot;&gt;&lt;font style=&quot;vertical-align: inherit;&quot;&gt;累計勤務実績&lt;/font&gt;&lt;/font&gt;&lt;div&gt;&lt;font style=&quot;vertical-align: inherit;&quot;&gt;&lt;font style=&quot;vertical-align: inherit;&quot;&gt;ボタン&lt;/font&gt;&lt;/font&gt;&lt;/div&gt;" style="text;html=1;align=center;verticalAlign=middle;whiteSpace=wrap;rounded=0;" parent="1" vertex="1">
          <mxGeometry x="630" y="650" width="90" height="30" as="geometry" />
        </mxCell>
        <mxCell id="TRF8s5XP4Mn8EqwiA2At-26" value="&lt;font style=&quot;vertical-align: inherit;&quot;&gt;&lt;font style=&quot;vertical-align: inherit;&quot;&gt;ユーザー登録画面&lt;/font&gt;&lt;/font&gt;" style="rounded=0;whiteSpace=wrap;html=1;" parent="1" vertex="1">
          <mxGeometry x="827" y="730" width="140" height="110" as="geometry" />
        </mxCell>
        <mxCell id="TRF8s5XP4Mn8EqwiA2At-28" value="&lt;div&gt;&lt;font style=&quot;vertical-align: inherit;&quot;&gt;&lt;font style=&quot;vertical-align: inherit;&quot;&gt;&lt;font style=&quot;vertical-align: inherit;&quot;&gt;&lt;font style=&quot;vertical-align: inherit;&quot;&gt;&lt;font style=&quot;vertical-align: inherit;&quot;&gt;&lt;font style=&quot;vertical-align: inherit;&quot;&gt;ログイン成功&lt;/font&gt;&lt;/font&gt;&lt;/font&gt;&lt;/font&gt;&lt;/font&gt;&lt;/font&gt;&lt;/div&gt;" style="text;html=1;align=center;verticalAlign=middle;whiteSpace=wrap;rounded=0;" parent="1" vertex="1">
          <mxGeometry x="590" y="100" width="90" height="30" as="geometry" />
        </mxCell>
        <mxCell id="TRF8s5XP4Mn8EqwiA2At-29" value="&lt;div&gt;&lt;font style=&quot;vertical-align: inherit;&quot;&gt;&lt;font style=&quot;vertical-align: inherit;&quot;&gt;&lt;font style=&quot;vertical-align: inherit;&quot;&gt;&lt;font style=&quot;vertical-align: inherit;&quot;&gt;&lt;font style=&quot;vertical-align: inherit;&quot;&gt;&lt;font style=&quot;vertical-align: inherit;&quot;&gt;ログイン成功&lt;/font&gt;&lt;/font&gt;&lt;/font&gt;&lt;/font&gt;&lt;/font&gt;&lt;/font&gt;&lt;/div&gt;" style="text;html=1;align=center;verticalAlign=middle;whiteSpace=wrap;rounded=0;" parent="1" vertex="1">
          <mxGeometry x="293" y="370" width="90" height="30" as="geometry" />
        </mxCell>
        <mxCell id="TRF8s5XP4Mn8EqwiA2At-30" value="検索画面" style="rounded=0;whiteSpace=wrap;html=1;" parent="1" vertex="1">
          <mxGeometry x="1210" y="90" width="140" height="110" as="geometry" />
        </mxCell>
        <mxCell id="TRF8s5XP4Mn8EqwiA2At-32" value="&lt;div&gt;&lt;font style=&quot;vertical-align: inherit;&quot;&gt;&lt;font style=&quot;vertical-align: inherit;&quot;&gt;&lt;font style=&quot;vertical-align: inherit;&quot;&gt;&lt;font style=&quot;vertical-align: inherit;&quot;&gt;&lt;font style=&quot;vertical-align: inherit;&quot;&gt;&lt;font style=&quot;vertical-align: inherit;&quot;&gt;検索ボタン&lt;/font&gt;&lt;/font&gt;&lt;/font&gt;&lt;/font&gt;&lt;/font&gt;&lt;/font&gt;&lt;/div&gt;" style="text;html=1;align=center;verticalAlign=middle;whiteSpace=wrap;rounded=0;" parent="1" vertex="1">
          <mxGeometry x="1031" y="100" width="90" height="30" as="geometry" />
        </mxCell>
        <mxCell id="TRF8s5XP4Mn8EqwiA2At-33" value="編集画面" style="rounded=0;whiteSpace=wrap;html=1;" parent="1" vertex="1">
          <mxGeometry x="1031" y="310" width="140" height="110" as="geometry" />
        </mxCell>
        <mxCell id="TRF8s5XP4Mn8EqwiA2At-34" value="&lt;font style=&quot;vertical-align: inherit;&quot;&gt;&lt;font style=&quot;vertical-align: inherit;&quot;&gt;累計勤務実績確認画面&lt;/font&gt;&lt;/font&gt;" style="rounded=0;whiteSpace=wrap;html=1;" parent="1" vertex="1">
          <mxGeometry x="1390" y="310" width="140" height="110" as="geometry" />
        </mxCell>
        <mxCell id="TRF8s5XP4Mn8EqwiA2At-35" value="" style="endArrow=classic;startArrow=classic;html=1;rounded=0;exitX=0.5;exitY=0;exitDx=0;exitDy=0;entryX=0.5;entryY=0;entryDx=0;entryDy=0;" parent="1" source="TRF8s5XP4Mn8EqwiA2At-33" target="TRF8s5XP4Mn8EqwiA2At-34" edge="1">
          <mxGeometry width="50" height="50" relative="1" as="geometry">
            <mxPoint x="720" y="460" as="sourcePoint" />
            <mxPoint x="770" y="410" as="targetPoint" />
            <Array as="points">
              <mxPoint x="1101" y="240" />
              <mxPoint x="1460" y="240" />
            </Array>
          </mxGeometry>
        </mxCell>
        <mxCell id="TRF8s5XP4Mn8EqwiA2At-36" value="" style="endArrow=none;html=1;rounded=0;entryX=0.5;entryY=1;entryDx=0;entryDy=0;" parent="1" target="TRF8s5XP4Mn8EqwiA2At-30" edge="1">
          <mxGeometry width="50" height="50" relative="1" as="geometry">
            <mxPoint x="1280" y="240" as="sourcePoint" />
            <mxPoint x="770" y="410" as="targetPoint" />
          </mxGeometry>
        </mxCell>
        <mxCell id="TRF8s5XP4Mn8EqwiA2At-37" value="" style="endArrow=classic;startArrow=classic;html=1;rounded=0;exitX=0.5;exitY=0;exitDx=0;exitDy=0;entryX=0.5;entryY=0;entryDx=0;entryDy=0;" parent="1" source="TRF8s5XP4Mn8EqwiA2At-20" target="TRF8s5XP4Mn8EqwiA2At-26" edge="1">
          <mxGeometry width="50" height="50" relative="1" as="geometry">
            <mxPoint x="440" y="570" as="sourcePoint" />
            <mxPoint x="490" y="520" as="targetPoint" />
            <Array as="points">
              <mxPoint x="90" y="590" />
              <mxPoint x="897" y="590" />
            </Array>
          </mxGeometry>
        </mxCell>
        <mxCell id="TRF8s5XP4Mn8EqwiA2At-39" value="&lt;div&gt;&lt;font style=&quot;vertical-align: inherit;&quot;&gt;&lt;font style=&quot;vertical-align: inherit;&quot;&gt;ユーザー登録&lt;/font&gt;&lt;/font&gt;&lt;/div&gt;&lt;div&gt;&lt;font style=&quot;vertical-align: inherit;&quot;&gt;&lt;font style=&quot;vertical-align: inherit;&quot;&gt;&lt;font style=&quot;vertical-align: inherit;&quot;&gt;&lt;font style=&quot;vertical-align: inherit;&quot;&gt;&lt;font style=&quot;vertical-align: inherit;&quot;&gt;&lt;font style=&quot;vertical-align: inherit;&quot;&gt;&lt;font style=&quot;vertical-align: inherit;&quot;&gt;&lt;font style=&quot;vertical-align: inherit;&quot;&gt;ボタン&lt;/font&gt;&lt;/font&gt;&lt;/font&gt;&lt;/font&gt;&lt;/font&gt;&lt;/font&gt;&lt;/font&gt;&lt;/font&gt;&lt;/div&gt;" style="text;html=1;align=center;verticalAlign=middle;whiteSpace=wrap;rounded=0;" parent="1" vertex="1">
          <mxGeometry x="910" y="650" width="90" height="30" as="geometry" />
        </mxCell>
        <mxCell id="TRF8s5XP4Mn8EqwiA2At-40" value="&lt;font style=&quot;vertical-align: inherit;&quot;&gt;&lt;font style=&quot;vertical-align: inherit;&quot;&gt;ログアウト画面&lt;/font&gt;&lt;/font&gt;" style="rounded=0;whiteSpace=wrap;html=1;" parent="1" vertex="1">
          <mxGeometry x="1210" y="950" width="140" height="110" as="geometry" />
        </mxCell>
        <mxCell id="TRF8s5XP4Mn8EqwiA2At-41" value="&lt;div&gt;編集&lt;/div&gt;&lt;div&gt;&lt;font style=&quot;vertical-align: inherit;&quot;&gt;&lt;font style=&quot;vertical-align: inherit;&quot;&gt;&lt;font style=&quot;vertical-align: inherit;&quot;&gt;&lt;font style=&quot;vertical-align: inherit;&quot;&gt;&lt;font style=&quot;vertical-align: inherit;&quot;&gt;&lt;font style=&quot;vertical-align: inherit;&quot;&gt;ボタン&lt;/font&gt;&lt;/font&gt;&lt;/font&gt;&lt;/font&gt;&lt;/font&gt;&lt;/font&gt;&lt;/div&gt;" style="text;html=1;align=center;verticalAlign=middle;whiteSpace=wrap;rounded=0;" parent="1" vertex="1">
          <mxGeometry x="1121" y="270" width="90" height="30" as="geometry" />
        </mxCell>
        <mxCell id="TRF8s5XP4Mn8EqwiA2At-42" value="&lt;div&gt;勤務実績確認&lt;/div&gt;&lt;div&gt;&lt;font style=&quot;vertical-align: inherit;&quot;&gt;&lt;font style=&quot;vertical-align: inherit;&quot;&gt;&lt;font style=&quot;vertical-align: inherit;&quot;&gt;&lt;font style=&quot;vertical-align: inherit;&quot;&gt;&lt;font style=&quot;vertical-align: inherit;&quot;&gt;&lt;font style=&quot;vertical-align: inherit;&quot;&gt;ボタン&lt;/font&gt;&lt;/font&gt;&lt;/font&gt;&lt;/font&gt;&lt;/font&gt;&lt;/font&gt;&lt;/div&gt;" style="text;html=1;align=center;verticalAlign=middle;whiteSpace=wrap;rounded=0;" parent="1" vertex="1">
          <mxGeometry x="1490" y="270" width="90" height="30" as="geometry" />
        </mxCell>
        <mxCell id="hwQXTbt12FcypfmocEli-1" value="&lt;font style=&quot;vertical-align: inherit;&quot;&gt;&lt;font style=&quot;vertical-align: inherit;&quot;&gt;勤怠状況確認画面&lt;/font&gt;&lt;/font&gt;" style="rounded=0;whiteSpace=wrap;html=1;" vertex="1" parent="1">
          <mxGeometry x="274" y="730" width="140" height="110" as="geometry" />
        </mxCell>
        <mxCell id="hwQXTbt12FcypfmocEli-2" value="&lt;font style=&quot;vertical-align: inherit;&quot;&gt;&lt;font style=&quot;vertical-align: inherit;&quot;&gt;&lt;font style=&quot;vertical-align: inherit;&quot;&gt;&lt;font style=&quot;vertical-align: inherit;&quot;&gt;勤務状況確認&lt;/font&gt;&lt;/font&gt;&lt;/font&gt;&lt;/font&gt;&lt;div&gt;&lt;font style=&quot;vertical-align: inherit;&quot;&gt;&lt;font style=&quot;vertical-align: inherit;&quot;&gt;&lt;font style=&quot;vertical-align: inherit;&quot;&gt;&lt;font style=&quot;vertical-align: inherit;&quot;&gt;ボタン&lt;/font&gt;&lt;/font&gt;&lt;/font&gt;&lt;/font&gt;&lt;/div&gt;" style="text;html=1;align=center;verticalAlign=middle;whiteSpace=wrap;rounded=0;" vertex="1" parent="1">
          <mxGeometry x="350" y="650" width="90" height="30" as="geometry" />
        </mxCell>
        <mxCell id="hwQXTbt12FcypfmocEli-4" value="" style="endArrow=classic;html=1;rounded=0;" edge="1" parent="1" target="TRF8s5XP4Mn8EqwiA2At-23">
          <mxGeometry width="50" height="50" relative="1" as="geometry">
            <mxPoint x="623" y="590" as="sourcePoint" />
            <mxPoint x="627" y="610" as="targetPoint" />
          </mxGeometry>
        </mxCell>
        <mxCell id="hwQXTbt12FcypfmocEli-5" value="" style="endArrow=classic;html=1;rounded=0;entryX=0.5;entryY=0;entryDx=0;entryDy=0;" edge="1" parent="1" target="hwQXTbt12FcypfmocEli-1">
          <mxGeometry width="50" height="50" relative="1" as="geometry">
            <mxPoint x="344" y="590" as="sourcePoint" />
            <mxPoint x="344.5" y="610" as="targetPoint" />
          </mxGeometry>
        </mxCell>
        <mxCell id="hwQXTbt12FcypfmocEli-6" value="" style="endArrow=none;html=1;rounded=0;entryX=0.5;entryY=1;entryDx=0;entryDy=0;" edge="1" parent="1" target="TRF8s5XP4Mn8EqwiA2At-16">
          <mxGeometry width="50" height="50" relative="1" as="geometry">
            <mxPoint x="484" y="590" as="sourcePoint" />
            <mxPoint x="780" y="490" as="targetPoint" />
          </mxGeometry>
        </mxCell>
        <mxCell id="hwQXTbt12FcypfmocEli-11" value="" style="endArrow=none;html=1;rounded=0;entryX=0.5;entryY=1;entryDx=0;entryDy=0;" edge="1" parent="1" target="TRF8s5XP4Mn8EqwiA2At-20">
          <mxGeometry width="50" height="50" relative="1" as="geometry">
            <mxPoint x="90" y="910" as="sourcePoint" />
            <mxPoint x="810" y="730" as="targetPoint" />
          </mxGeometry>
        </mxCell>
        <mxCell id="hwQXTbt12FcypfmocEli-12" value="" style="endArrow=none;html=1;rounded=0;entryX=0.5;entryY=1;entryDx=0;entryDy=0;" edge="1" parent="1" target="hwQXTbt12FcypfmocEli-1">
          <mxGeometry width="50" height="50" relative="1" as="geometry">
            <mxPoint x="343.5" y="910" as="sourcePoint" />
            <mxPoint x="343.5" y="840" as="targetPoint" />
          </mxGeometry>
        </mxCell>
        <mxCell id="hwQXTbt12FcypfmocEli-13" value="" style="endArrow=none;html=1;rounded=0;entryX=0.5;entryY=1;entryDx=0;entryDy=0;" edge="1" parent="1" target="TRF8s5XP4Mn8EqwiA2At-23">
          <mxGeometry width="50" height="50" relative="1" as="geometry">
            <mxPoint x="623" y="910" as="sourcePoint" />
            <mxPoint x="623" y="840" as="targetPoint" />
          </mxGeometry>
        </mxCell>
        <mxCell id="hwQXTbt12FcypfmocEli-14" value="" style="endArrow=none;html=1;rounded=0;entryX=0.5;entryY=1;entryDx=0;entryDy=0;" edge="1" parent="1">
          <mxGeometry width="50" height="50" relative="1" as="geometry">
            <mxPoint x="899" y="910" as="sourcePoint" />
            <mxPoint x="899" y="840" as="targetPoint" />
          </mxGeometry>
        </mxCell>
        <mxCell id="hwQXTbt12FcypfmocEli-15" value="" style="endArrow=none;html=1;rounded=0;" edge="1" parent="1">
          <mxGeometry width="50" height="50" relative="1" as="geometry">
            <mxPoint x="90" y="910" as="sourcePoint" />
            <mxPoint x="900" y="910" as="targetPoint" />
          </mxGeometry>
        </mxCell>
        <mxCell id="hwQXTbt12FcypfmocEli-16" value="" style="endArrow=classic;html=1;rounded=0;entryX=0;entryY=0.5;entryDx=0;entryDy=0;" edge="1" parent="1" target="TRF8s5XP4Mn8EqwiA2At-40">
          <mxGeometry width="50" height="50" relative="1" as="geometry">
            <mxPoint x="480" y="910" as="sourcePoint" />
            <mxPoint x="510" y="730" as="targetPoint" />
            <Array as="points">
              <mxPoint x="480" y="1005" />
            </Array>
          </mxGeometry>
        </mxCell>
        <mxCell id="hwQXTbt12FcypfmocEli-17" value="" style="endArrow=none;html=1;rounded=0;entryX=0.5;entryY=1;entryDx=0;entryDy=0;" edge="1" parent="1" target="TRF8s5XP4Mn8EqwiA2At-33">
          <mxGeometry width="50" height="50" relative="1" as="geometry">
            <mxPoint x="1100" y="510" as="sourcePoint" />
            <mxPoint x="1240" y="450" as="targetPoint" />
          </mxGeometry>
        </mxCell>
        <mxCell id="hwQXTbt12FcypfmocEli-18" value="" style="endArrow=none;html=1;rounded=0;entryX=0.5;entryY=1;entryDx=0;entryDy=0;" edge="1" parent="1" target="TRF8s5XP4Mn8EqwiA2At-34">
          <mxGeometry width="50" height="50" relative="1" as="geometry">
            <mxPoint x="1460" y="510" as="sourcePoint" />
            <mxPoint x="1461" y="420" as="targetPoint" />
          </mxGeometry>
        </mxCell>
        <mxCell id="hwQXTbt12FcypfmocEli-19" value="" style="endArrow=none;html=1;rounded=0;" edge="1" parent="1">
          <mxGeometry width="50" height="50" relative="1" as="geometry">
            <mxPoint x="1100" y="510" as="sourcePoint" />
            <mxPoint x="1460" y="510" as="targetPoint" />
          </mxGeometry>
        </mxCell>
        <mxCell id="hwQXTbt12FcypfmocEli-20" value="" style="endArrow=classic;html=1;rounded=0;entryX=0.5;entryY=0;entryDx=0;entryDy=0;" edge="1" parent="1" target="TRF8s5XP4Mn8EqwiA2At-40">
          <mxGeometry width="50" height="50" relative="1" as="geometry">
            <mxPoint x="1280" y="510" as="sourcePoint" />
            <mxPoint x="1320" y="780.9091186523438" as="targetPoint" />
          </mxGeometry>
        </mxCell>
      </root>
    </mxGraphModel>
  </diagram>
  <diagram id="2X8lZ37qVRVuRdMo-SJD" name="ページ2">
    <mxGraphModel dx="1016" dy="654" grid="1" gridSize="10" guides="1" tooltips="1" connect="1" arrows="1" fold="1" page="1" pageScale="1" pageWidth="827" pageHeight="1169" math="0" shadow="0">
      <root>
        <mxCell id="0" />
        <mxCell id="1" parent="0" />
      </root>
    </mxGraphModel>
  </diagram>
</mxfile>
